<?xml version="1.0" encoding="UTF-8" standalone="no"?>
<svg
   xmlns:dc="http://purl.org/dc/elements/1.1/"
   xmlns:cc="http://creativecommons.org/ns#"
   xmlns:rdf="http://www.w3.org/1999/02/22-rdf-syntax-ns#"
   xmlns:svg="http://www.w3.org/2000/svg"
   xmlns="http://www.w3.org/2000/svg"
   id="svg22"
   version="1.1"
   style="overflow:visible"
   viewBox="-240 -184 480 374"
   height="1496px"
   width="1920px">
  <metadata
     id="metadata28">
    <rdf:RDF>
      <cc:Work
         rdf:about="">
        <dc:format>image/svg+xml</dc:format>
        <dc:type
           rdf:resource="http://purl.org/dc/dcmitype/StillImage" />
      </cc:Work>
    </rdf:RDF>
  </metadata>
  <defs
     id="defs26" />
  <rect
     id="rect2"
     fill-opacity="0"
     fill="rgb(0,0,0)"
     height="374"
     width="480"
     y="-184"
     x="-240" />
  <svg
     id="svg20"
     version="1.1"
     y="-250"
     x="-250"
     viewBox="-250 -250 500 500"
     height="500"
     width="500"
     style="overflow:visible">
    <g
       style="fill:#ffffff;stroke-linejoin:round"
       id="g18">
      <path
         style="fill:#fa0000;fill-opacity:1;stroke:none;stroke-linecap:butt;stroke-linejoin:round"
         id="path4"
         d="M 170,-170 V -59.204 A 229.204,229.204 0 0 0 -59.201,170 H -170 a 340,340 0 0 1 340,-340 z" />
      <path
         style="fill:#fa8800;fill-opacity:1;stroke:none;stroke-linecap:butt;stroke-linejoin:round"
         id="path6"
         d="m 170,-153 v 93.7955 a 229.204,229.204 0 0 0 -229.201,229.204 h -93.7988 a 323,323 0 0 1 323,-323 z" />
      <path
         style="fill:#faf000;fill-opacity:1;stroke:none;stroke-linecap:butt;stroke-linejoin:round"
         id="path8"
         d="m 170,-136 v 76.7955 a 229.204,229.204 0 0 0 -229.201,229.204 h -76.7988 a 306,306 0 0 1 306,-306 z" />
      <path
         style="fill:#09fa00;fill-opacity:1;stroke:none;stroke-linecap:butt;stroke-linejoin:round"
         id="path10"
         d="m 170,-119 v 59.7955 a 229.204,229.204 0 0 0 -229.201,229.204 h -59.7988 a 289,289 0 0 1 289,-289 z" />
      <path
         style="fill:#0085fa;fill-opacity:1;stroke:none;stroke-linecap:butt;stroke-linejoin:round"
         id="path12"
         d="m 170,-102 v 42.7955 a 229.204,229.204 0 0 0 -229.201,229.204 h -42.7988 a 272,272 0 0 1 272,-272 z" />
      <path
         style="fill:#0018fa;fill-opacity:1;stroke:none;stroke-linecap:butt;stroke-linejoin:round"
         id="path14"
         d="m 170,-85 v 25.7955 a 229.204,229.204 0 0 0 -229.201,229.204 h -25.7988 a 255,255 0 0 1 255,-255 z" />
      <path
         style="fill:#7c00fa;fill-opacity:1;stroke:none;stroke-linecap:butt;stroke-linejoin:round"
         id="path16"
         d="m 170,-68 v 17 A 221,221 0 0 0 -51,170 H -68 A 238,238 0 0 1 170,-68 Z" />
    </g>
  </svg>
</svg>
